<svg xmlns="http://www.w3.org/2000/svg" xmlns:xlink="http://www.w3.org/1999/xlink" width="500" zoomAndPan="magnify" viewBox="0 0 375 374.999991" height="500" preserveAspectRatio="xMidYMid meet" version="1.0"><defs><filter x="0%" y="0%" width="100%" height="100%" id="52747ffc8e"><feColorMatrix values="0 0 0 0 1 0 0 0 0 1 0 0 0 0 1 0 0 0 1 0" color-interpolation-filters="sRGB"/></filter><g/><mask id="234e2f5374"><g filter="url(#52747ffc8e)"><rect x="-37.5" width="450" fill="#000000" y="-37.499999" height="449.999989" fill-opacity="0.7569"/></g></mask><clipPath id="79f56b6388"><path d="M 11 1.058594 L 155 1.058594 L 155 147.308594 L 11 147.308594 Z M 11 1.058594 " clip-rule="nonzero"/></clipPath><clipPath id="2edf29e8be"><path d="M 3 1.058594 L 19 1.058594 L 19 17 L 3 17 Z M 3 1.058594 " clip-rule="nonzero"/></clipPath><clipPath id="80857bb337"><rect x="0" width="159" y="0" height="149"/></clipPath><clipPath id="13e71e4cec"><path d="M 140.652344 105.367188 L 234.347656 105.367188 L 234.347656 199.0625 L 140.652344 199.0625 Z M 140.652344 105.367188 " clip-rule="nonzero"/></clipPath><clipPath id="2bb85a2cfc"><path d="M 187.5 105.367188 L 202.972656 114.863281 L 220.625 119.089844 L 224.851562 136.742188 L 234.347656 152.214844 L 224.851562 167.6875 L 220.625 185.339844 L 202.972656 189.566406 L 187.5 199.0625 L 172.027344 189.566406 L 154.375 185.339844 L 150.148438 167.6875 L 140.652344 152.214844 L 150.148438 136.742188 L 154.375 119.089844 L 172.027344 114.863281 L 187.5 105.367188 " clip-rule="nonzero"/></clipPath><clipPath id="f6e818a37d"><path d="M 155.324219 120.601562 L 219.824219 120.601562 L 219.824219 183.601562 L 155.324219 183.601562 Z M 155.324219 120.601562 " clip-rule="nonzero"/></clipPath><clipPath id="ab453bf857"><path d="M 157 120.601562 L 219.824219 120.601562 L 219.824219 183 L 157 183 Z M 157 120.601562 " clip-rule="nonzero"/></clipPath></defs><g mask="url(#234e2f5374)"><g transform="matrix(1, 0, 0, 1, 108, 78)"><g clip-path="url(#80857bb337)"><g clip-path="url(#79f56b6388)"><path fill="#9d9d9d" d="M 146.035156 10.148438 C 147.246094 11.359375 149.066406 11.359375 150.277344 10.148438 C 151.488281 8.9375 151.488281 7.121094 150.277344 5.90625 C 149.066406 4.695312 147.246094 4.695312 146.035156 5.90625 C 144.824219 7.121094 144.824219 8.9375 146.035156 10.148438 Z M 73.941406 83.777344 L 34.257812 122.867188 L 73.433594 82.972656 C 73.132812 82.566406 72.828125 82.164062 72.527344 81.859375 L 70.003906 79.4375 L 31.835938 119.9375 C 31.835938 119.9375 18.101562 130.847656 11.4375 147.410156 C 11.4375 147.410156 26.886719 136.90625 38.902344 124.179688 L 76.363281 88.222656 C 75.65625 86.707031 74.949219 85.09375 74.042969 83.777344 Z M 116.25 39.441406 L 115.035156 31.664062 L 81.714844 66.910156 L 85.453125 70.648438 L 116.25 39.339844 Z M 86.359375 71.558594 C 87.371094 72.367188 88.582031 73.175781 89.691406 73.78125 C 89.894531 73.882812 90.296875 74.082031 90.703125 74.285156 L 124.832031 41.460938 L 117.460938 40.855469 L 86.359375 71.457031 Z M 130.789062 31.664062 L 124.730469 25.601562 L 139.070312 11.261719 L 145.125 17.320312 Z M 114.734375 17.21875 L 137.753906 40.246094 C 137.753906 40.246094 141.1875 44.589844 136.242188 47.621094 C 136.242188 47.621094 127.253906 35.804688 118.570312 38.632812 C 118.570312 38.632812 118.773438 26.207031 108.976562 21.257812 C 108.976562 21.257812 110.492188 14.996094 114.835938 17.320312 Z M 143.410156 3.28125 C 146.035156 0.65625 150.277344 0.65625 152.902344 3.28125 C 155.527344 5.90625 155.527344 10.148438 152.902344 12.773438 C 150.277344 15.402344 146.035156 15.402344 143.410156 12.773438 C 140.785156 10.148438 140.785156 5.90625 143.410156 3.28125 Z M 143.410156 3.28125 " fill-opacity="1" fill-rule="evenodd"/></g><g clip-path="url(#2edf29e8be)"><path fill="#9d9d9d" d="M 16.585938 14.289062 C 19.113281 11.765625 19.414062 7.925781 17.191406 5.707031 C 15.578125 4.089844 13.152344 3.886719 11.035156 4.796875 C 11.335938 3.683594 11.132812 2.675781 10.328125 1.867188 C 9.113281 0.65625 6.792969 0.855469 5.277344 2.371094 C 3.761719 3.886719 3.460938 6.210938 4.773438 7.421875 C 5.378906 8.027344 6.386719 8.332031 7.296875 8.128906 C 6.085938 10.453125 6.289062 13.179688 8.003906 14.894531 C 10.226562 17.117188 14.0625 16.816406 16.585938 14.289062 Z M 16.585938 14.289062 " fill-opacity="1" fill-rule="evenodd"/></g><path fill="#9d9d9d" d="M 27.1875 32.371094 C 27.59375 25.5 33.855469 26.207031 33.855469 26.207031 C 28.5 17.824219 19.71875 13.785156 19.71875 13.785156 L 16.285156 16.816406 C 14.769531 20.855469 27.1875 32.46875 27.1875 32.46875 Z M 27.1875 32.371094 " fill-opacity="1" fill-rule="evenodd"/><path fill="#9d9d9d" d="M 34.15625 37.417969 C 33.953125 38.328125 33.753906 39.339844 33.347656 40.449219 C 33.046875 41.5625 32.640625 42.671875 32.238281 43.882812 C 31.835938 44.996094 31.429688 46.207031 30.925781 47.214844 C 30.519531 48.226562 30.015625 49.238281 29.613281 50.042969 C 28.804688 51.660156 28.097656 52.773438 28.097656 52.773438 C 28.097656 52.773438 28.199219 51.558594 28.601562 49.742188 C 28.804688 48.832031 29.007812 47.824219 29.410156 46.710938 C 29.714844 45.601562 30.117188 44.488281 30.519531 43.277344 C 30.925781 42.167969 31.328125 40.953125 31.835938 39.945312 C 32.238281 38.933594 32.742188 37.925781 33.148438 37.117188 C 33.953125 35.5 34.660156 34.390625 34.660156 34.390625 C 34.660156 34.390625 34.558594 35.601562 34.15625 37.417969 Z M 57.785156 27.015625 L 54.148438 22.976562 L 30.824219 29.640625 L 24.664062 52.570312 L 28.703125 56.609375 L 37.085938 34.996094 L 57.886719 27.117188 Z M 57.785156 27.015625 " fill-opacity="1" fill-rule="evenodd"/><path fill="#9d9d9d" d="M 84.136719 73.074219 L 45.566406 34.492188 L 41.023438 36.207031 L 121.09375 118.222656 L 38.5 37.519531 L 36.074219 43.882812 L 74.140625 79.839844 C 77.574219 83.273438 79.898438 90.75 79.898438 90.75 C 83.128906 90.140625 87.773438 94.789062 87.773438 94.789062 C 117.359375 130.339844 145.53125 144.078125 145.53125 144.078125 C 145.53125 129.128906 96.761719 84.585938 96.761719 84.585938 C 92.921875 80.75 92.519531 77.316406 92.519531 77.316406 C 89.488281 77.71875 83.9375 73.074219 83.9375 73.074219 Z M 84.136719 73.074219 " fill-opacity="1" fill-rule="evenodd"/></g></g></g><g clip-path="url(#13e71e4cec)"><g clip-path="url(#2bb85a2cfc)"><path fill="#1a1716" d="M 140.652344 105.367188 L 234.347656 105.367188 L 234.347656 199.0625 L 140.652344 199.0625 Z M 140.652344 105.367188 " fill-opacity="1" fill-rule="nonzero"/></g></g><g clip-path="url(#f6e818a37d)"><path fill="#e09428" d="M 169.148438 131.792969 L 168.472656 129.757812 C 167.957031 128.21875 168.550781 126.527344 169.917969 125.636719 C 170.796875 125.074219 171.699219 124.550781 172.640625 124.066406 C 174.089844 123.332031 175.855469 123.667969 176.933594 124.882812 C 177.378906 125.382812 177.910156 125.976562 178.347656 126.464844 C 178.355469 126.476562 178.375 126.480469 178.398438 126.472656 C 179.472656 126.113281 180.566406 125.820312 181.683594 125.597656 C 181.703125 125.59375 181.714844 125.582031 181.71875 125.5625 C 181.847656 124.929688 182.011719 124.144531 182.148438 123.492188 C 182.472656 121.902344 183.832031 120.730469 185.464844 120.644531 C 186.507812 120.59375 187.550781 120.59375 188.609375 120.640625 C 190.234375 120.730469 191.59375 121.898438 191.921875 123.492188 L 192.351562 125.589844 C 193.488281 125.816406 194.605469 126.117188 195.703125 126.484375 L 197.128906 124.882812 C 198.210938 123.671875 199.910156 122.828125 201.777344 123.621094 C 202.738281 124.027344 203.742188 124.664062 204.632812 125.234375 C 205.996094 126.121094 205.820312 128.191406 205.304688 129.734375 L 204.769531 131.734375 C 205.628906 132.488281 206.589844 133.359375 207.347656 134.222656 C 207.359375 134.234375 208.714844 135.789062 208.730469 135.785156 C 209.351562 135.578125 213.621094 133.230469 214.515625 134.597656 C 215.078125 135.472656 215.539062 136.371094 216.085938 137.3125 C 217.066406 138.984375 215.511719 140.933594 214.296875 142.011719 L 212.691406 143.4375 C 213.0625 144.53125 213.359375 145.644531 213.585938 146.777344 C 213.585938 146.777344 213.648438 147.339844 214.3125 147.679688 C 215.757812 148.414062 219.550781 149.363281 219.613281 150.476562 C 219.664062 151.515625 219.554688 152.535156 219.503906 153.589844 C 219.414062 155.210938 217.285156 156.636719 215.691406 156.964844 L 213.585938 157.394531 C 213.359375 158.527344 213.0625 159.644531 212.6875 160.738281 L 214.292969 162.164062 C 215.511719 163.242188 216.417969 165.148438 215.679688 166.601562 C 215.535156 166.878906 215.363281 167.152344 215.210938 167.425781 C 214.859375 168.0625 214.433594 168.683594 214.035156 169.304688 C 213.148438 170.664062 210.953125 171.121094 209.410156 170.609375 L 207.371094 169.933594 C 206.605469 170.800781 205.785156 171.617188 204.917969 172.382812 L 205.59375 174.414062 C 206.105469 175.953125 205.515625 177.644531 204.144531 178.535156 C 203.269531 179.101562 202.363281 179.621094 201.425781 180.105469 C 199.972656 180.839844 198.207031 180.503906 197.128906 179.292969 L 195.703125 177.6875 C 194.605469 178.058594 193.488281 178.359375 192.351562 178.585938 L 191.917969 180.683594 C 191.589844 182.273438 190.230469 183.441406 188.597656 183.53125 C 187.558594 183.582031 186.511719 183.582031 185.457031 183.53125 C 183.832031 183.445312 182.472656 182.273438 182.144531 180.683594 L 181.710938 178.585938 C 180.578125 178.359375 179.457031 178.058594 178.359375 177.6875 L 176.933594 179.289062 C 175.855469 180.503906 174.089844 180.835938 172.632812 180.101562 C 171.703125 179.625 170.800781 179.101562 169.910156 178.535156 C 168.546875 177.648438 167.957031 175.953125 168.46875 174.414062 L 169.148438 172.378906 C 168.277344 171.617188 167.457031 170.800781 166.695312 169.933594 L 164.65625 170.609375 C 163.113281 171.121094 161.417969 170.527344 160.527344 169.164062 C 159.960938 168.289062 159.4375 167.386719 158.953125 166.449219 C 158.214844 165 158.550781 163.238281 159.769531 162.160156 L 161.375 160.738281 C 161.003906 159.644531 160.703125 158.527344 160.476562 157.394531 L 158.371094 156.960938 C 156.78125 156.636719 155.609375 155.277344 155.519531 153.652344 C 155.46875 152.609375 155.46875 151.566406 155.515625 150.515625 C 155.605469 148.894531 156.777344 147.535156 158.371094 147.210938 L 160.476562 146.777344 C 160.703125 145.644531 161.003906 144.527344 161.375 143.433594 L 159.769531 142.011719 C 158.554688 140.933594 158.21875 139.171875 158.957031 137.71875 C 159.433594 136.792969 159.957031 135.890625 160.527344 135.003906 C 161.417969 133.644531 163.113281 133.050781 164.65625 133.566406 L 166.695312 134.242188 C 167.457031 133.375 168.277344 132.554688 169.148438 131.792969 Z M 188.980469 126.757812 L 188.453125 124.199219 C 188.453125 124.179688 188.433594 124.167969 188.429688 124.167969 C 187.5 124.121094 186.570312 124.121094 185.648438 124.167969 C 185.628906 124.167969 185.617188 124.183594 185.609375 124.203125 C 185.476562 124.859375 185.3125 125.640625 185.183594 126.277344 C 185.128906 126.527344 185.054688 126.765625 184.953125 126.992188 C 182.035156 127.398438 179.273438 128.308594 176.769531 129.628906 C 176.375 129.429688 176.011719 129.15625 175.707031 128.8125 C 175.269531 128.328125 174.738281 127.726562 174.289062 127.226562 C 174.277344 127.210938 174.257812 127.207031 174.25 127.210938 C 173.425781 127.636719 172.617188 128.101562 171.84375 128.597656 C 171.828125 128.609375 171.824219 128.628906 171.828125 128.648438 C 172.265625 129.964844 172.882812 131.816406 172.882812 131.816406 C 172.914062 131.910156 172.9375 132.007812 172.953125 132.105469 C 170.828125 133.777344 168.984375 135.78125 167.5 138.042969 C 167.242188 138.078125 166.976562 138.054688 166.71875 137.96875 C 166.71875 137.96875 164.863281 137.351562 163.539062 136.914062 C 163.519531 136.90625 163.5 136.914062 163.496094 136.917969 C 162.996094 137.699219 162.53125 138.503906 162.109375 139.324219 C 162.101562 139.339844 162.105469 139.359375 162.121094 139.375 C 163.160156 140.296875 164.621094 141.59375 164.621094 141.59375 C 164.90625 141.84375 165.09375 142.175781 165.171875 142.53125 C 164.359375 144.589844 163.816406 146.785156 163.582031 149.066406 C 163.34375 149.535156 162.902344 149.886719 162.363281 149.996094 C 162.363281 149.996094 160.449219 150.386719 159.082031 150.667969 C 159.0625 150.671875 159.050781 150.6875 159.050781 150.691406 C 159.007812 151.621094 159.007812 152.546875 159.050781 153.46875 C 159.054688 153.484375 159.066406 153.5 159.085938 153.503906 C 160.449219 153.785156 162.363281 154.179688 162.363281 154.179688 C 163.089844 154.328125 163.644531 154.910156 163.757812 155.640625 C 164.019531 157.34375 164.464844 159.015625 165.09375 160.621094 C 165.363281 161.308594 165.175781 162.09375 164.621094 162.582031 C 164.621094 162.582031 163.15625 163.878906 162.117188 164.800781 C 162.101562 164.8125 162.097656 164.835938 162.101562 164.839844 C 162.527344 165.664062 162.992188 166.46875 163.492188 167.242188 C 163.503906 167.257812 163.523438 167.265625 163.542969 167.257812 C 164.863281 166.820312 166.71875 166.207031 166.71875 166.207031 C 167.417969 165.972656 168.191406 166.199219 168.65625 166.777344 C 168.828125 166.988281 169 167.199219 169.179688 167.40625 C 170.242188 168.683594 171.429688 169.851562 172.722656 170.894531 C 172.980469 171.328125 173.046875 171.859375 172.882812 172.359375 C 172.882812 172.359375 172.265625 174.210938 171.824219 175.527344 C 171.820312 175.546875 171.828125 175.566406 171.832031 175.570312 C 172.613281 176.070312 173.417969 176.535156 174.242188 176.957031 C 174.257812 176.964844 174.277344 176.960938 174.289062 176.945312 C 175.214844 175.90625 176.515625 174.449219 176.515625 174.449219 C 176.765625 174.167969 177.09375 173.980469 177.445312 173.898438 C 179.703125 175.003906 182.148438 175.777344 184.726562 176.160156 C 184.824219 176.324219 184.894531 176.507812 184.933594 176.699219 C 184.933594 176.699219 185.328125 178.613281 185.609375 179.976562 C 185.613281 179.992188 185.628906 180.007812 185.636719 180.007812 C 186.5625 180.050781 187.496094 180.050781 188.414062 180.003906 C 188.433594 180.003906 188.449219 179.992188 188.453125 179.96875 C 188.734375 178.613281 189.128906 176.699219 189.128906 176.699219 C 189.148438 176.605469 189.175781 176.511719 189.210938 176.421875 C 192.214844 176.332031 195.085938 175.710938 197.734375 174.65625 L 199.773438 176.949219 C 199.785156 176.960938 199.808594 176.964844 199.8125 176.964844 C 200.640625 176.539062 201.445312 176.074219 202.21875 175.574219 C 202.234375 175.566406 202.242188 175.546875 202.234375 175.527344 C 201.941406 174.636719 201.5625 173.503906 201.351562 172.863281 C 204.082031 171.21875 206.472656 169.074219 208.386719 166.550781 L 210.523438 167.261719 C 210.542969 167.265625 210.5625 167.257812 210.566406 167.253906 C 211.070312 166.472656 211.535156 165.667969 211.953125 164.851562 C 211.964844 164.835938 211.960938 164.816406 211.945312 164.800781 C 211.460938 164.371094 210.886719 163.859375 210.410156 163.4375 C 211.996094 160.539062 213.015625 157.292969 213.328125 153.84375 L 214.980469 153.507812 C 215 153.503906 215.011719 153.488281 215.011719 153.480469 C 215.058594 152.554688 215.058594 151.625 215.011719 150.707031 C 215.011719 150.6875 214.996094 150.671875 214.976562 150.667969 C 214.484375 150.566406 213.921875 150.449219 213.398438 150.34375 C 213.222656 146.789062 212.292969 143.429688 210.765625 140.421875 L 211.949219 139.371094 C 211.960938 139.359375 211.964844 139.339844 211.964844 139.332031 C 211.535156 138.507812 211.070312 137.707031 210.570312 136.933594 C 210.5625 136.917969 210.542969 136.910156 210.523438 136.917969 L 208.96875 137.429688 C 207.023438 134.648438 204.523438 132.28125 201.625 130.488281 L 202.238281 128.644531 C 202.246094 128.628906 202.238281 128.609375 202.230469 128.605469 C 201.449219 128.101562 200.644531 127.636719 199.824219 127.21875 C 199.808594 127.210938 199.789062 127.214844 199.773438 127.230469 C 199.332031 127.722656 198.808594 128.3125 198.378906 128.796875 C 195.488281 127.546875 192.3125 126.828125 188.980469 126.757812 Z M 188.980469 126.757812 " fill-opacity="1" fill-rule="evenodd"/></g><g clip-path="url(#ab453bf857)"><path fill="#f3ba69" d="M 191.746094 122.144531 C 191.574219 121.304688 190.851562 120.6875 189.992188 120.640625 C 188.960938 120.59375 187.925781 120.59375 186.894531 120.644531 C 186.035156 120.691406 185.316406 121.304688 185.144531 122.144531 C 185 122.828125 184.832031 123.644531 184.695312 124.308594 C 184.539062 125.050781 183.953125 125.628906 183.203125 125.777344 C 182.117188 125.992188 181.046875 126.277344 179.996094 126.628906 C 179.277344 126.871094 178.476562 126.664062 177.96875 126.097656 C 177.515625 125.59375 176.957031 124.96875 176.492188 124.445312 C 175.921875 123.804688 174.984375 123.628906 174.21875 124.015625 C 173.300781 124.488281 172.40625 125.003906 171.535156 125.558594 C 170.816406 126.027344 170.503906 126.917969 170.773438 127.730469 C 171.230469 129.105469 171.878906 131.035156 171.878906 131.035156 C 170.359375 132.246094 168.980469 133.617188 167.765625 135.125 C 167.765625 135.125 165.824219 134.480469 164.441406 134.023438 C 163.625 133.753906 162.726562 134.066406 162.253906 134.785156 C 161.695312 135.648438 161.179688 136.535156 160.707031 137.449219 C 160.320312 138.214844 160.496094 139.140625 161.140625 139.707031 C 162.226562 140.671875 163.757812 142.023438 163.757812 142.023438 C 163.050781 143.824219 162.546875 145.699219 162.253906 147.609375 C 162.253906 147.609375 160.25 148.015625 158.820312 148.308594 C 157.976562 148.480469 157.355469 149.199219 157.308594 150.050781 C 157.261719 151.078125 157.261719 152.105469 157.3125 153.132812 C 157.359375 153.984375 157.980469 154.699219 158.820312 154.871094 C 160.25 155.167969 162.253906 155.574219 162.253906 155.574219 C 162.546875 157.488281 163.050781 159.359375 163.757812 161.160156 C 163.757812 161.160156 162.226562 162.511719 161.136719 163.472656 C 160.492188 164.042969 160.316406 164.972656 160.707031 165.734375 C 161.179688 166.648438 161.695312 167.539062 162.257812 168.398438 C 162.726562 169.117188 163.625 169.425781 164.441406 169.15625 C 165.824219 168.703125 167.765625 168.0625 167.765625 168.0625 C 168.980469 169.570312 170.359375 170.941406 171.878906 172.148438 C 171.878906 172.148438 171.230469 174.078125 170.773438 175.453125 C 170.5 176.265625 170.8125 177.160156 171.535156 177.628906 C 172.40625 178.183594 173.300781 178.695312 174.21875 179.164062 C 174.984375 179.550781 175.917969 179.375 176.492188 178.734375 C 177.460938 177.652344 178.820312 176.132812 178.820312 176.132812 C 180.632812 176.832031 182.515625 177.335938 184.4375 177.628906 C 184.4375 177.628906 184.847656 179.621094 185.140625 181.042969 C 185.3125 181.878906 186.035156 182.496094 186.894531 182.542969 C 187.925781 182.59375 188.960938 182.59375 189.992188 182.539062 C 190.851562 182.496094 191.570312 181.878906 191.742188 181.039062 C 192.039062 179.621094 192.453125 177.628906 192.453125 177.628906 C 194.371094 177.335938 196.257812 176.832031 198.066406 176.132812 C 198.066406 176.132812 199.425781 177.652344 200.394531 178.738281 C 200.96875 179.378906 201.902344 179.554688 202.671875 179.167969 C 203.585938 178.695312 204.484375 178.183594 205.351562 177.625 C 206.070312 177.15625 206.382812 176.265625 206.113281 175.453125 C 205.65625 174.078125 205.007812 172.148438 205.007812 172.148438 C 206.527344 170.941406 207.90625 169.570312 209.121094 168.0625 C 209.121094 168.0625 211.0625 168.703125 212.445312 169.160156 C 213.265625 169.429688 214.164062 169.117188 214.632812 168.402344 C 215.191406 167.539062 215.707031 166.648438 216.179688 165.734375 C 216.566406 164.972656 216.390625 164.042969 215.746094 163.476562 C 214.660156 162.511719 213.128906 161.160156 213.128906 161.160156 C 213.835938 159.359375 214.339844 157.488281 214.632812 155.574219 C 214.632812 155.574219 216.640625 155.167969 218.066406 154.875 C 218.910156 154.703125 219.53125 153.988281 219.578125 153.132812 C 219.625 152.105469 219.625 151.078125 219.574219 150.050781 C 219.527344 149.199219 218.910156 148.484375 218.066406 148.3125 C 216.640625 148.015625 214.632812 147.609375 214.632812 147.609375 C 214.339844 145.699219 213.835938 143.824219 213.128906 142.023438 C 213.128906 142.023438 214.660156 140.671875 215.75 139.710938 C 216.394531 139.140625 216.570312 138.214844 216.183594 137.449219 C 215.707031 136.535156 215.191406 135.648438 214.628906 134.785156 C 214.160156 134.070312 213.265625 133.757812 212.449219 134.027344 C 211.78125 134.246094 210.984375 134.507812 210.335938 134.722656 C 209.613281 134.960938 208.816406 134.746094 208.3125 134.171875 C 207.304688 133.035156 206.199219 131.984375 205.007812 131.035156 C 205.007812 131.035156 205.65625 129.105469 206.113281 127.730469 C 206.386719 126.917969 206.074219 126.023438 205.351562 125.558594 C 204.484375 125.003906 203.585938 124.488281 202.667969 124.019531 C 201.902344 123.632812 200.96875 123.808594 200.398438 124.449219 C 199.425781 125.53125 198.066406 127.050781 198.066406 127.050781 C 196.257812 126.351562 194.371094 125.847656 192.453125 125.554688 C 192.453125 125.554688 192.039062 123.5625 191.746094 122.144531 Z M 189.089844 133.132812 L 189.523438 132.265625 C 190.136719 131.03125 191.511719 130.367188 192.875 130.644531 C 193.570312 130.789062 194.257812 130.96875 194.953125 131.1875 C 196.269531 131.609375 197.136719 132.859375 197.0625 134.234375 L 197.007812 135.203125 C 197.445312 135.425781 197.871094 135.667969 198.285156 135.929688 L 199.097656 135.390625 C 200.25 134.628906 201.773438 134.734375 202.816406 135.652344 C 203.347656 136.125 203.851562 136.625 204.34375 137.15625 C 205.273438 138.175781 205.394531 139.691406 204.636719 140.84375 L 204.105469 141.65625 C 204.371094 142.066406 204.617188 142.488281 204.847656 142.917969 L 205.816406 142.859375 C 207.199219 142.769531 208.46875 143.621094 208.90625 144.933594 C 209.128906 145.605469 209.316406 146.289062 209.472656 146.992188 C 209.765625 148.339844 209.109375 149.710938 207.871094 150.332031 L 207.003906 150.769531 C 207.027344 151.257812 207.027344 151.746094 207.011719 152.234375 L 207.882812 152.664062 C 209.125 153.273438 209.792969 154.640625 209.515625 155.996094 C 209.367188 156.691406 209.1875 157.375 208.96875 158.0625 C 208.546875 159.375 207.285156 160.234375 205.902344 160.160156 L 204.929688 160.105469 C 204.703125 160.539062 204.460938 160.964844 204.199219 161.378906 L 204.738281 162.183594 C 205.507812 163.328125 205.402344 164.84375 204.476562 165.878906 C 204 166.40625 203.5 166.910156 202.964844 167.398438 C 201.9375 168.324219 200.414062 168.441406 199.253906 167.691406 L 198.4375 167.160156 C 198.023438 167.425781 197.601562 167.671875 197.167969 167.898438 L 197.230469 168.863281 C 197.316406 170.238281 196.464844 171.5 195.140625 171.933594 C 194.464844 172.15625 193.777344 172.339844 193.070312 172.5 C 191.714844 172.789062 190.335938 172.136719 189.710938 170.90625 L 189.269531 170.042969 C 188.777344 170.066406 188.289062 170.066406 187.796875 170.050781 L 187.363281 170.917969 C 186.75 172.152344 185.378906 172.816406 184.011719 172.539062 C 183.316406 172.394531 182.628906 172.214844 181.933594 171.996094 C 180.617188 171.574219 179.75 170.324219 179.824219 168.949219 L 179.878906 167.980469 C 179.441406 167.757812 179.015625 167.515625 178.597656 167.257812 L 177.789062 167.792969 C 176.636719 168.554688 175.113281 168.449219 174.070312 167.53125 C 173.542969 167.058594 173.035156 166.558594 172.542969 166.027344 C 171.613281 165.007812 171.492188 163.492188 172.25 162.339844 L 172.78125 161.527344 C 172.519531 161.117188 172.269531 160.695312 172.039062 160.265625 L 171.070312 160.328125 C 169.6875 160.414062 168.417969 159.566406 167.980469 158.25 C 167.757812 157.578125 167.570312 156.894531 167.414062 156.191406 C 167.121094 154.84375 167.777344 153.472656 169.015625 152.851562 L 169.882812 152.414062 C 169.859375 151.925781 169.859375 151.4375 169.875 150.949219 L 169.003906 150.519531 C 167.761719 149.910156 167.09375 148.542969 167.371094 147.1875 C 167.519531 146.496094 167.699219 145.808594 167.917969 145.121094 C 168.34375 143.8125 169.601562 142.949219 170.984375 143.023438 L 171.957031 143.078125 C 172.183594 142.644531 172.425781 142.21875 172.6875 141.804688 L 172.148438 141 C 171.378906 139.855469 171.488281 138.339844 172.410156 137.304688 C 172.886719 136.777344 173.386719 136.273438 173.921875 135.785156 C 174.949219 134.863281 176.472656 134.742188 177.632812 135.492188 L 178.449219 136.023438 C 178.863281 135.761719 179.285156 135.515625 179.71875 135.285156 L 179.660156 134.320312 C 179.570312 132.945312 180.421875 131.6875 181.746094 131.25 C 182.421875 131.03125 183.109375 130.84375 183.816406 130.683594 C 185.171875 130.394531 186.550781 131.050781 187.179688 132.277344 L 187.617188 133.140625 C 188.109375 133.117188 188.601562 133.117188 189.089844 133.132812 Z M 189.089844 133.132812 " fill-opacity="1" fill-rule="evenodd"/></g><path fill="#ffffff" d="M 185.527344 133.109375 C 185.28125 132.625 184.738281 132.371094 184.207031 132.484375 C 183.570312 132.625 182.941406 132.796875 182.320312 132.996094 C 181.804688 133.167969 181.472656 133.664062 181.503906 134.203125 C 181.53125 134.640625 181.566406 135.167969 181.59375 135.59375 C 181.625 136.070312 181.363281 136.523438 180.929688 136.734375 C 180.304688 137.046875 179.703125 137.398438 179.121094 137.785156 C 178.722656 138.050781 178.199219 138.058594 177.796875 137.796875 C 177.4375 137.5625 176.992188 137.277344 176.621094 137.035156 C 176.164062 136.738281 175.566406 136.789062 175.164062 137.148438 C 174.683594 137.589844 174.226562 138.050781 173.789062 138.53125 C 173.429688 138.9375 173.386719 139.53125 173.6875 139.980469 C 174.195312 140.742188 174.914062 141.8125 174.914062 141.8125 C 174.191406 142.796875 173.582031 143.863281 173.09375 144.980469 C 173.09375 144.980469 171.804688 144.910156 170.882812 144.863281 C 170.339844 144.832031 169.847656 145.171875 169.679688 145.6875 C 169.484375 146.304688 169.320312 146.933594 169.183594 147.566406 C 169.074219 148.09375 169.339844 148.628906 169.824219 148.871094 C 170.648438 149.277344 171.808594 149.847656 171.808594 149.847656 C 171.679688 151.0625 171.683594 152.285156 171.824219 153.496094 C 171.824219 153.496094 170.671875 154.078125 169.851562 154.492188 C 169.367188 154.734375 169.109375 155.273438 169.222656 155.804688 C 169.363281 156.4375 169.535156 157.0625 169.738281 157.679688 C 169.910156 158.191406 170.410156 158.523438 170.949219 158.488281 C 171.867188 158.433594 173.160156 158.351562 173.160156 158.351562 C 173.65625 159.464844 174.277344 160.523438 175.007812 161.503906 C 175.007812 161.503906 174.304688 162.578125 173.800781 163.34375 C 173.503906 163.796875 173.550781 164.394531 173.917969 164.792969 C 174.359375 165.269531 174.820312 165.726562 175.304688 166.160156 C 175.710938 166.519531 176.3125 166.558594 176.761719 166.261719 C 177.53125 165.753906 178.605469 165.042969 178.605469 165.042969 C 179.597656 165.761719 180.667969 166.367188 181.792969 166.851562 C 181.792969 166.851562 181.722656 168.136719 181.675781 169.046875 C 181.644531 169.589844 181.984375 170.082031 182.503906 170.246094 C 183.125 170.441406 183.753906 170.605469 184.394531 170.738281 C 184.925781 170.847656 185.464844 170.585938 185.707031 170.101562 C 186.113281 169.28125 186.6875 168.128906 186.6875 168.128906 C 187.910156 168.257812 189.140625 168.253906 190.359375 168.113281 C 190.359375 168.113281 190.945312 169.257812 191.359375 170.074219 C 191.605469 170.558594 192.148438 170.8125 192.679688 170.699219 C 193.316406 170.558594 193.945312 170.386719 194.566406 170.1875 C 195.082031 170.015625 195.417969 169.523438 195.382812 168.984375 C 195.324219 168.070312 195.242188 166.785156 195.242188 166.785156 C 196.363281 166.292969 197.425781 165.675781 198.414062 164.945312 C 198.414062 164.945312 199.496094 165.648438 200.265625 166.148438 C 200.722656 166.445312 201.320312 166.398438 201.722656 166.035156 C 202.203125 165.597656 202.664062 165.132812 203.097656 164.652344 C 203.457031 164.246094 203.5 163.652344 203.199219 163.203125 C 202.691406 162.441406 201.972656 161.371094 201.972656 161.371094 C 202.695312 160.386719 203.304688 159.320312 203.792969 158.203125 C 203.792969 158.203125 205.085938 158.273438 206.003906 158.324219 C 206.546875 158.351562 207.042969 158.015625 207.207031 157.5 C 207.402344 156.878906 207.570312 156.253906 207.703125 155.617188 C 207.8125 155.089844 207.550781 154.554688 207.0625 154.3125 C 206.238281 153.90625 205.078125 153.335938 205.078125 153.335938 C 205.207031 152.125 205.203125 150.898438 205.0625 149.6875 C 205.0625 149.6875 206.214844 149.105469 207.035156 148.691406 C 207.519531 148.449219 207.78125 147.910156 207.664062 147.378906 C 207.523438 146.746094 207.351562 146.121094 207.148438 145.503906 C 206.976562 144.992188 206.480469 144.660156 205.9375 144.695312 C 205.019531 144.75 203.730469 144.835938 203.730469 144.835938 C 203.230469 143.71875 202.609375 142.660156 201.878906 141.683594 C 201.878906 141.683594 202.582031 140.605469 203.085938 139.839844 C 203.382812 139.386719 203.335938 138.792969 202.972656 138.390625 C 202.53125 137.914062 202.066406 137.457031 201.582031 137.023438 C 201.175781 136.664062 200.578125 136.625 200.125 136.921875 C 199.753906 137.167969 199.3125 137.460938 198.957031 137.695312 C 198.554688 137.960938 198.03125 137.960938 197.628906 137.695312 C 196.828125 137.167969 195.976562 136.714844 195.09375 136.332031 C 195.09375 136.332031 195.164062 135.050781 195.214844 134.136719 C 195.242188 133.59375 194.902344 133.105469 194.386719 132.9375 C 193.761719 132.742188 193.132812 132.578125 192.492188 132.445312 C 191.960938 132.335938 191.421875 132.597656 191.179688 133.082031 C 190.773438 133.902344 190.199219 135.054688 190.199219 135.054688 C 188.976562 134.925781 187.746094 134.933594 186.527344 135.070312 C 186.527344 135.070312 185.941406 133.925781 185.527344 133.109375 Z M 182.554688 159.578125 C 183.246094 159.578125 183.808594 160.136719 183.808594 160.828125 C 183.808594 161.515625 183.246094 162.074219 182.554688 162.074219 C 181.859375 162.074219 181.296875 161.515625 181.296875 160.828125 C 181.296875 160.136719 181.859375 159.578125 182.554688 159.578125 Z M 187.40625 147.816406 C 189.503906 147.25 191.667969 148.476562 192.242188 150.5625 C 192.8125 152.644531 191.578125 154.796875 189.480469 155.367188 C 187.386719 155.9375 185.21875 154.707031 184.648438 152.621094 C 184.074219 150.539062 185.3125 148.386719 187.40625 147.816406 Z M 193.96875 139.878906 C 195.128906 139.878906 196.066406 140.8125 196.066406 141.964844 C 196.066406 143.117188 195.128906 144.050781 193.96875 144.050781 C 192.8125 144.050781 191.871094 143.117188 191.871094 141.964844 C 191.871094 140.8125 192.8125 139.878906 193.96875 139.878906 Z M 193.96875 139.878906 " fill-opacity="1" fill-rule="evenodd"/><g fill="#1a1716" fill-opacity="1"><g transform="translate(135.67353, 220.439503)"><g><path d="M 17.09375 -11.578125 L 22.640625 -11.578125 L 22.640625 -2.375 C 21.378906 -1.46875 19.921875 -0.769531 18.265625 -0.28125 C 16.617188 0.195312 14.972656 0.4375 13.328125 0.4375 C 10.992188 0.4375 8.894531 -0.0507812 7.03125 -1.03125 C 5.175781 -2.007812 3.71875 -3.375 2.65625 -5.125 C 1.601562 -6.882812 1.078125 -8.875 1.078125 -11.09375 C 1.078125 -13.320312 1.601562 -15.3125 2.65625 -17.0625 C 3.71875 -18.820312 5.1875 -20.191406 7.0625 -21.171875 C 8.945312 -22.148438 11.078125 -22.640625 13.453125 -22.640625 C 15.523438 -22.640625 17.382812 -22.289062 19.03125 -21.59375 C 20.675781 -20.894531 22.050781 -19.894531 23.15625 -18.59375 L 19.15625 -14.96875 C 17.65625 -16.613281 15.859375 -17.4375 13.765625 -17.4375 C 11.859375 -17.4375 10.320312 -16.859375 9.15625 -15.703125 C 8 -14.554688 7.421875 -13.019531 7.421875 -11.09375 C 7.421875 -9.875 7.6875 -8.78125 8.21875 -7.8125 C 8.75 -6.851562 9.488281 -6.101562 10.4375 -5.5625 C 11.382812 -5.019531 12.472656 -4.75 13.703125 -4.75 C 14.910156 -4.75 16.039062 -4.992188 17.09375 -5.484375 Z M 17.09375 -11.578125 "/></g></g></g><g fill="#1a1716" fill-opacity="1"><g transform="translate(163.263065, 220.439503)"><g><path d="M 20.046875 -4.859375 L 20.046875 0 L 2.21875 0 L 2.21875 -22.203125 L 19.640625 -22.203125 L 19.640625 -17.34375 L 8.4375 -17.34375 L 8.4375 -13.609375 L 18.296875 -13.609375 L 18.296875 -8.90625 L 8.4375 -8.90625 L 8.4375 -4.859375 Z M 20.046875 -4.859375 "/></g></g></g><g fill="#1a1716" fill-opacity="1"><g transform="translate(187.744934, 220.439503)"><g><path d="M 17.09375 -4.3125 L 7.703125 -4.3125 L 5.96875 0 L -0.4375 0 L 9.359375 -22.203125 L 15.546875 -22.203125 L 25.375 0 L 18.84375 0 Z M 15.25 -8.9375 L 12.40625 -16.046875 L 9.546875 -8.9375 Z M 15.25 -8.9375 "/></g></g></g><g fill="#1a1716" fill-opacity="1"><g transform="translate(215.841842, 220.439503)"><g><path d="M 11.921875 -5.90625 L 8.5 -5.90625 L 8.5 0 L 2.21875 0 L 2.21875 -22.203125 L 12.375 -22.203125 C 14.382812 -22.203125 16.128906 -21.867188 17.609375 -21.203125 C 19.085938 -20.535156 20.226562 -19.582031 21.03125 -18.34375 C 21.832031 -17.113281 22.234375 -15.660156 22.234375 -13.984375 C 22.234375 -12.378906 21.859375 -10.976562 21.109375 -9.78125 C 20.359375 -8.59375 19.285156 -7.660156 17.890625 -6.984375 L 22.671875 0 L 15.953125 0 Z M 15.890625 -13.984375 C 15.890625 -15.023438 15.5625 -15.828125 14.90625 -16.390625 C 14.25 -16.960938 13.273438 -17.25 11.984375 -17.25 L 8.5 -17.25 L 8.5 -10.75 L 11.984375 -10.75 C 13.273438 -10.75 14.25 -11.03125 14.90625 -11.59375 C 15.5625 -12.15625 15.890625 -12.953125 15.890625 -13.984375 Z M 15.890625 -13.984375 "/></g></g></g><g fill="#1a1716" fill-opacity="1"><g transform="translate(109.130563, 251.939501)"><g><path d="M 2.21875 -22.203125 L 8.5 -22.203125 L 8.5 0 L 2.21875 0 Z M 2.21875 -22.203125 "/></g></g></g><g fill="#1a1716" fill-opacity="1"><g transform="translate(123.052718, 251.939501)"><g><path d="M 23.34375 -22.203125 L 23.34375 0 L 18.171875 0 L 8.375 -11.828125 L 8.375 0 L 2.21875 0 L 2.21875 -22.203125 L 7.390625 -22.203125 L 17.1875 -10.375 L 17.1875 -22.203125 Z M 23.34375 -22.203125 "/></g></g></g><g fill="#1a1716" fill-opacity="1"><g transform="translate(151.783846, 251.939501)"><g><path d="M 10.015625 0.4375 C 8.222656 0.4375 6.476562 0.21875 4.78125 -0.21875 C 3.09375 -0.664062 1.722656 -1.257812 0.671875 -2 L 2.734375 -6.625 C 3.722656 -5.96875 4.875 -5.4375 6.1875 -5.03125 C 7.5 -4.632812 8.789062 -4.4375 10.0625 -4.4375 C 12.46875 -4.4375 13.671875 -5.039062 13.671875 -6.25 C 13.671875 -6.882812 13.328125 -7.351562 12.640625 -7.65625 C 11.953125 -7.96875 10.847656 -8.289062 9.328125 -8.625 C 7.648438 -8.988281 6.25 -9.375 5.125 -9.78125 C 4.007812 -10.195312 3.050781 -10.859375 2.25 -11.765625 C 1.445312 -12.671875 1.046875 -13.898438 1.046875 -15.453125 C 1.046875 -16.804688 1.414062 -18.023438 2.15625 -19.109375 C 2.894531 -20.203125 4 -21.0625 5.46875 -21.6875 C 6.9375 -22.320312 8.738281 -22.640625 10.875 -22.640625 C 12.332031 -22.640625 13.769531 -22.472656 15.1875 -22.140625 C 16.601562 -21.816406 17.851562 -21.34375 18.9375 -20.71875 L 17 -16.046875 C 14.882812 -17.191406 12.832031 -17.765625 10.84375 -17.765625 C 9.59375 -17.765625 8.679688 -17.578125 8.109375 -17.203125 C 7.546875 -16.835938 7.265625 -16.359375 7.265625 -15.765625 C 7.265625 -15.171875 7.601562 -14.722656 8.28125 -14.421875 C 8.957031 -14.128906 10.046875 -13.828125 11.546875 -13.515625 C 13.234375 -13.148438 14.628906 -12.757812 15.734375 -12.34375 C 16.847656 -11.9375 17.8125 -11.285156 18.625 -10.390625 C 19.445312 -9.492188 19.859375 -8.269531 19.859375 -6.71875 C 19.859375 -5.382812 19.488281 -4.175781 18.75 -3.09375 C 18.007812 -2.019531 16.894531 -1.160156 15.40625 -0.515625 C 13.925781 0.117188 12.128906 0.4375 10.015625 0.4375 Z M 10.015625 0.4375 "/></g></g></g><g fill="#1a1716" fill-opacity="1"><g transform="translate(175.472949, 251.939501)"><g><path d="M 2.21875 -22.203125 L 8.5 -22.203125 L 8.5 0 L 2.21875 0 Z M 2.21875 -22.203125 "/></g></g></g><g fill="#1a1716" fill-opacity="1"><g transform="translate(189.395103, 251.939501)"><g><path d="M 17.09375 -11.578125 L 22.640625 -11.578125 L 22.640625 -2.375 C 21.378906 -1.46875 19.921875 -0.769531 18.265625 -0.28125 C 16.617188 0.195312 14.972656 0.4375 13.328125 0.4375 C 10.992188 0.4375 8.894531 -0.0507812 7.03125 -1.03125 C 5.175781 -2.007812 3.71875 -3.375 2.65625 -5.125 C 1.601562 -6.882812 1.078125 -8.875 1.078125 -11.09375 C 1.078125 -13.320312 1.601562 -15.3125 2.65625 -17.0625 C 3.71875 -18.820312 5.1875 -20.191406 7.0625 -21.171875 C 8.945312 -22.148438 11.078125 -22.640625 13.453125 -22.640625 C 15.523438 -22.640625 17.382812 -22.289062 19.03125 -21.59375 C 20.675781 -20.894531 22.050781 -19.894531 23.15625 -18.59375 L 19.15625 -14.96875 C 17.65625 -16.613281 15.859375 -17.4375 13.765625 -17.4375 C 11.859375 -17.4375 10.320312 -16.859375 9.15625 -15.703125 C 8 -14.554688 7.421875 -13.019531 7.421875 -11.09375 C 7.421875 -9.875 7.6875 -8.78125 8.21875 -7.8125 C 8.75 -6.851562 9.488281 -6.101562 10.4375 -5.5625 C 11.382812 -5.019531 12.472656 -4.75 13.703125 -4.75 C 14.910156 -4.75 16.039062 -4.992188 17.09375 -5.484375 Z M 17.09375 -11.578125 "/></g></g></g><g fill="#1a1716" fill-opacity="1"><g transform="translate(216.984644, 251.939501)"><g><path d="M 23.34375 -22.203125 L 23.34375 0 L 17.0625 0 L 17.0625 -8.65625 L 8.5 -8.65625 L 8.5 0 L 2.21875 0 L 2.21875 -22.203125 L 8.5 -22.203125 L 8.5 -13.859375 L 17.0625 -13.859375 L 17.0625 -22.203125 Z M 23.34375 -22.203125 "/></g></g></g><g fill="#1a1716" fill-opacity="1"><g transform="translate(245.715768, 251.939501)"><g><path d="M 6.953125 -17.21875 L 0.125 -17.21875 L 0.125 -22.203125 L 20.015625 -22.203125 L 20.015625 -17.21875 L 13.234375 -17.21875 L 13.234375 0 L 6.953125 0 Z M 6.953125 -17.21875 "/></g></g></g></svg>