<svg xmlns="http://www.w3.org/2000/svg" xmlns:xlink="http://www.w3.org/1999/xlink" width="200" zoomAndPan="magnify" viewBox="0 0 150 149.999998" height="200" preserveAspectRatio="xMidYMid meet" version="1.0"><defs><filter x="0%" y="0%" width="100%" height="100%" id="95a7c3f504"><feColorMatrix values="0 0 0 0 1 0 0 0 0 1 0 0 0 0 1 0 0 0 1 0" color-interpolation-filters="sRGB"/></filter><g/><mask id="f2ea6c3296"><g filter="url(#95a7c3f504)"><rect x="-15" width="180" fill="#000000" y="-15" height="179.999997" fill-opacity="0.7569"/></g></mask><clipPath id="e434b9d895"><path d="M 6 1 L 94 1 L 94 90.132812 L 6 90.132812 Z M 6 1 " clip-rule="nonzero"/></clipPath><clipPath id="2fd326f0e4"><path d="M 1 0.882812 L 11 0.882812 L 11 11 L 1 11 Z M 1 0.882812 " clip-rule="nonzero"/></clipPath><clipPath id="89aeae5c7e"><rect x="0" width="97" y="0" height="91"/></clipPath><clipPath id="7cb619f90c"><path d="M 46.464844 35.90625 L 103.535156 35.90625 L 103.535156 92.972656 L 46.464844 92.972656 Z M 46.464844 35.90625 " clip-rule="nonzero"/></clipPath><clipPath id="e5fc3fa769"><path d="M 75 35.90625 L 84.421875 41.691406 L 95.175781 44.265625 L 97.75 55.019531 L 103.535156 64.441406 L 97.75 73.863281 L 95.175781 84.617188 L 84.421875 87.191406 L 75 92.972656 L 65.578125 87.191406 L 54.824219 84.617188 L 52.25 73.863281 L 46.464844 64.441406 L 52.25 55.019531 L 54.824219 44.265625 L 65.578125 41.691406 L 75 35.90625 " clip-rule="nonzero"/></clipPath><clipPath id="6730a4dfa5"><path d="M 55.402344 45.1875 L 94.402344 45.1875 L 94.402344 83.4375 L 55.402344 83.4375 Z M 55.402344 45.1875 " clip-rule="nonzero"/></clipPath><clipPath id="4ef75c3186"><path d="M 56 45.1875 L 94.402344 45.1875 L 94.402344 83 L 56 83 Z M 56 45.1875 " clip-rule="nonzero"/></clipPath></defs><g mask="url(#f2ea6c3296)"><g transform="matrix(1, 0, 0, 1, 27, 19)"><g clip-path="url(#89aeae5c7e)"><g clip-path="url(#e434b9d895)"><path fill="#9d9d9d" d="M 88.320312 6.433594 C 89.058594 7.171875 90.160156 7.171875 90.898438 6.433594 C 91.632812 5.691406 91.632812 4.582031 90.898438 3.84375 C 90.160156 3.105469 89.058594 3.105469 88.320312 3.84375 C 87.585938 4.582031 87.585938 5.691406 88.320312 6.433594 Z M 44.511719 51.363281 L 20.398438 75.21875 L 44.203125 50.871094 C 44.019531 50.625 43.835938 50.378906 43.652344 50.195312 L 42.117188 48.714844 L 18.925781 73.429688 C 18.925781 73.429688 10.578125 80.085938 6.53125 90.195312 C 6.53125 90.195312 15.917969 83.785156 23.21875 76.019531 L 45.984375 54.078125 C 45.554688 53.152344 45.125 52.167969 44.570312 51.363281 Z M 70.21875 24.304688 L 69.484375 19.558594 L 49.234375 41.070312 L 51.503906 43.351562 L 70.21875 24.246094 Z M 52.058594 43.90625 C 52.671875 44.398438 53.40625 44.894531 54.082031 45.261719 C 54.207031 45.324219 54.449219 45.449219 54.695312 45.570312 L 75.433594 25.539062 L 70.957031 25.167969 L 52.058594 43.84375 Z M 79.054688 19.558594 L 75.375 15.863281 L 84.085938 7.109375 L 87.769531 10.808594 Z M 69.300781 10.746094 L 83.289062 24.800781 C 83.289062 24.800781 85.375 27.449219 82.367188 29.300781 C 82.367188 29.300781 76.90625 22.085938 71.632812 23.8125 C 71.632812 23.8125 71.753906 16.230469 65.800781 13.210938 C 65.800781 13.210938 66.722656 9.390625 69.359375 10.808594 Z M 86.726562 2.242188 C 88.320312 0.636719 90.898438 0.636719 92.492188 2.242188 C 94.089844 3.84375 94.089844 6.433594 92.492188 8.035156 C 90.898438 9.636719 88.320312 9.636719 86.726562 8.035156 C 85.128906 6.433594 85.128906 3.84375 86.726562 2.242188 Z M 86.726562 2.242188 " fill-opacity="1" fill-rule="evenodd"/></g><g clip-path="url(#2fd326f0e4)"><path fill="#9d9d9d" d="M 9.660156 8.960938 C 11.191406 7.417969 11.378906 5.074219 10.027344 3.71875 C 9.046875 2.734375 7.574219 2.609375 6.285156 3.164062 C 6.46875 2.488281 6.347656 1.871094 5.855469 1.378906 C 5.117188 0.636719 3.707031 0.761719 2.785156 1.6875 C 1.867188 2.609375 1.683594 4.027344 2.480469 4.769531 C 2.847656 5.136719 3.460938 5.324219 4.015625 5.199219 C 3.277344 6.617188 3.402344 8.28125 4.445312 9.328125 C 5.792969 10.683594 8.125 10.5 9.660156 8.960938 Z M 9.660156 8.960938 " fill-opacity="1" fill-rule="evenodd"/></g><path fill="#9d9d9d" d="M 16.101562 19.992188 C 16.347656 15.800781 20.152344 16.230469 20.152344 16.230469 C 16.898438 11.117188 11.5625 8.652344 11.5625 8.652344 L 9.476562 10.5 C 8.554688 12.964844 16.101562 20.054688 16.101562 20.054688 Z M 16.101562 19.992188 " fill-opacity="1" fill-rule="evenodd"/><path fill="#9d9d9d" d="M 20.335938 23.074219 C 20.210938 23.628906 20.089844 24.246094 19.84375 24.921875 C 19.660156 25.601562 19.414062 26.277344 19.167969 27.019531 C 18.925781 27.695312 18.679688 28.4375 18.371094 29.050781 C 18.125 29.667969 17.820312 30.285156 17.574219 30.777344 C 17.082031 31.765625 16.652344 32.441406 16.652344 32.441406 C 16.652344 32.441406 16.714844 31.703125 16.960938 30.59375 C 17.082031 30.039062 17.207031 29.421875 17.453125 28.746094 C 17.636719 28.066406 17.882812 27.386719 18.125 26.648438 C 18.371094 25.972656 18.617188 25.230469 18.925781 24.613281 C 19.167969 24 19.476562 23.382812 19.722656 22.890625 C 20.210938 21.902344 20.640625 21.226562 20.640625 21.226562 C 20.640625 21.226562 20.582031 21.964844 20.335938 23.074219 Z M 34.695312 16.726562 L 32.484375 14.261719 L 18.3125 18.328125 L 14.566406 32.320312 L 17.023438 34.785156 L 22.113281 21.59375 L 34.753906 16.785156 Z M 34.695312 16.726562 " fill-opacity="1" fill-rule="evenodd"/><path fill="#9d9d9d" d="M 50.707031 44.832031 L 27.269531 21.285156 L 24.507812 22.335938 L 73.164062 72.382812 L 22.972656 23.136719 L 21.5 27.019531 L 44.632812 48.960938 C 46.71875 51.058594 48.132812 55.617188 48.132812 55.617188 C 50.09375 55.25 52.917969 58.082031 52.917969 58.082031 C 70.894531 79.78125 88.015625 88.164062 88.015625 88.164062 C 88.015625 79.039062 58.378906 51.859375 58.378906 51.859375 C 56.046875 49.515625 55.800781 47.421875 55.800781 47.421875 C 53.960938 47.667969 50.585938 44.832031 50.585938 44.832031 Z M 50.707031 44.832031 " fill-opacity="1" fill-rule="evenodd"/></g></g></g><g clip-path="url(#7cb619f90c)"><g clip-path="url(#e5fc3fa769)"><path fill="#1a1716" d="M 46.464844 35.90625 L 103.535156 35.90625 L 103.535156 92.972656 L 46.464844 92.972656 Z M 46.464844 35.90625 " fill-opacity="1" fill-rule="nonzero"/></g></g><g clip-path="url(#6730a4dfa5)"><path fill="#e09428" d="M 63.757812 51.980469 L 63.351562 50.746094 C 63.039062 49.8125 63.398438 48.785156 64.226562 48.246094 C 64.757812 47.902344 65.304688 47.585938 65.871094 47.292969 C 66.75 46.84375 67.816406 47.050781 68.46875 47.785156 C 68.738281 48.089844 69.058594 48.449219 69.324219 48.746094 C 69.328125 48.753906 69.339844 48.757812 69.351562 48.75 C 70.003906 48.53125 70.664062 48.355469 71.339844 48.21875 C 71.351562 48.21875 71.359375 48.210938 71.359375 48.199219 C 71.441406 47.8125 71.539062 47.335938 71.621094 46.941406 C 71.816406 45.976562 72.640625 45.265625 73.628906 45.210938 C 74.257812 45.179688 74.890625 45.179688 75.527344 45.210938 C 76.511719 45.265625 77.332031 45.976562 77.53125 46.941406 L 77.792969 48.214844 C 78.480469 48.351562 79.15625 48.535156 79.820312 48.757812 L 80.683594 47.785156 C 81.335938 47.050781 82.363281 46.539062 83.492188 47.019531 C 84.074219 47.265625 84.679688 47.652344 85.21875 48 C 86.042969 48.539062 85.9375 49.796875 85.625 50.730469 L 85.300781 51.945312 C 85.820312 52.402344 86.402344 52.933594 86.863281 53.457031 C 86.867188 53.464844 87.6875 54.40625 87.699219 54.40625 C 88.070312 54.28125 90.65625 52.855469 91.195312 53.683594 C 91.535156 54.214844 91.8125 54.761719 92.144531 55.332031 C 92.738281 56.347656 91.796875 57.53125 91.0625 58.1875 L 90.089844 59.050781 C 90.316406 59.714844 90.496094 60.390625 90.632812 61.082031 C 90.632812 61.082031 90.667969 61.417969 91.074219 61.625 C 91.949219 62.074219 94.242188 62.648438 94.277344 63.324219 C 94.308594 63.957031 94.242188 64.574219 94.210938 65.214844 C 94.160156 66.199219 92.871094 67.066406 91.90625 67.265625 L 90.632812 67.527344 C 90.496094 68.214844 90.316406 68.890625 90.089844 69.554688 L 91.0625 70.421875 C 91.796875 71.074219 92.34375 72.234375 91.898438 73.117188 C 91.8125 73.285156 91.707031 73.449219 91.617188 73.613281 C 91.402344 74.003906 91.148438 74.378906 90.90625 74.757812 C 90.367188 75.582031 89.039062 75.859375 88.105469 75.546875 L 86.875 75.136719 C 86.410156 75.664062 85.917969 76.160156 85.390625 76.625 L 85.800781 77.859375 C 86.109375 78.792969 85.75 79.820312 84.925781 80.359375 C 84.394531 80.703125 83.847656 81.019531 83.277344 81.316406 C 82.402344 81.761719 81.332031 81.558594 80.679688 80.820312 L 79.816406 79.847656 C 79.15625 80.070312 78.476562 80.253906 77.792969 80.390625 L 77.53125 81.664062 C 77.332031 82.628906 76.507812 83.339844 75.523438 83.394531 C 74.890625 83.425781 74.261719 83.425781 73.621094 83.394531 C 72.640625 83.339844 71.816406 82.632812 71.617188 81.664062 L 71.359375 80.390625 C 70.671875 80.253906 69.996094 80.070312 69.332031 79.847656 L 68.46875 80.820312 C 67.816406 81.554688 66.75 81.757812 65.867188 81.3125 C 65.304688 81.023438 64.757812 80.707031 64.222656 80.359375 C 63.398438 79.820312 63.039062 78.792969 63.347656 77.859375 L 63.757812 76.625 C 63.234375 76.160156 62.738281 75.664062 62.277344 75.136719 L 61.042969 75.546875 C 60.109375 75.859375 59.085938 75.5 58.546875 74.671875 C 58.203125 74.140625 57.886719 73.589844 57.59375 73.023438 C 57.148438 72.144531 57.351562 71.074219 58.085938 70.417969 L 59.058594 69.554688 C 58.835938 68.890625 58.652344 68.214844 58.515625 67.527344 L 57.242188 67.261719 C 56.28125 67.0625 55.570312 66.242188 55.519531 65.253906 C 55.488281 64.621094 55.488281 63.988281 55.515625 63.347656 C 55.570312 62.363281 56.28125 61.539062 57.242188 61.339844 L 58.515625 61.078125 C 58.652344 60.390625 58.835938 59.714844 59.058594 59.050781 L 58.089844 58.183594 C 57.351562 57.53125 57.152344 56.460938 57.597656 55.578125 C 57.886719 55.015625 58.203125 54.46875 58.546875 53.929688 C 59.085938 53.105469 60.109375 52.746094 61.042969 53.058594 L 62.277344 53.46875 C 62.738281 52.941406 63.234375 52.445312 63.757812 51.980469 Z M 75.753906 48.925781 L 75.433594 47.371094 C 75.433594 47.359375 75.421875 47.351562 75.417969 47.351562 C 74.859375 47.324219 74.296875 47.324219 73.738281 47.351562 C 73.726562 47.351562 73.71875 47.359375 73.714844 47.375 C 73.632812 47.769531 73.535156 48.246094 73.457031 48.632812 C 73.425781 48.785156 73.378906 48.929688 73.316406 49.066406 C 71.550781 49.3125 69.882812 49.867188 68.367188 50.667969 C 68.128906 50.546875 67.910156 50.378906 67.726562 50.171875 C 67.460938 49.878906 67.140625 49.515625 66.871094 49.207031 C 66.863281 49.199219 66.847656 49.199219 66.84375 49.199219 C 66.347656 49.457031 65.859375 49.738281 65.390625 50.042969 C 65.382812 50.046875 65.378906 50.058594 65.382812 50.070312 C 65.644531 50.871094 66.019531 51.996094 66.019531 51.996094 C 66.039062 52.054688 66.050781 52.113281 66.058594 52.171875 C 64.777344 53.1875 63.660156 54.402344 62.765625 55.777344 C 62.609375 55.796875 62.445312 55.78125 62.289062 55.730469 C 62.289062 55.730469 61.167969 55.355469 60.367188 55.089844 C 60.355469 55.085938 60.34375 55.089844 60.34375 55.09375 C 60.039062 55.566406 59.757812 56.054688 59.503906 56.554688 C 59.5 56.5625 59.5 56.574219 59.511719 56.582031 C 60.136719 57.144531 61.023438 57.929688 61.023438 57.929688 C 61.195312 58.085938 61.308594 58.285156 61.355469 58.5 C 60.863281 59.75 60.535156 61.082031 60.394531 62.46875 C 60.25 62.753906 59.980469 62.964844 59.65625 63.03125 C 59.65625 63.03125 58.5 63.269531 57.671875 63.441406 C 57.660156 63.441406 57.652344 63.453125 57.652344 63.457031 C 57.628906 64.019531 57.628906 64.582031 57.65625 65.140625 C 57.65625 65.152344 57.664062 65.160156 57.675781 65.164062 C 58.5 65.335938 59.65625 65.574219 59.65625 65.574219 C 60.097656 65.664062 60.433594 66.015625 60.5 66.460938 C 60.65625 67.496094 60.929688 68.507812 61.308594 69.484375 C 61.472656 69.902344 61.355469 70.378906 61.023438 70.675781 C 61.023438 70.675781 60.136719 71.460938 59.507812 72.023438 C 59.5 72.03125 59.496094 72.042969 59.496094 72.046875 C 59.757812 72.546875 60.039062 73.035156 60.339844 73.503906 C 60.347656 73.511719 60.355469 73.515625 60.371094 73.511719 C 61.167969 73.25 62.289062 72.875 62.289062 72.875 C 62.714844 72.734375 63.183594 72.871094 63.460938 73.222656 C 63.566406 73.351562 63.671875 73.480469 63.777344 73.605469 C 64.421875 74.378906 65.136719 75.089844 65.921875 75.722656 C 66.078125 75.984375 66.117188 76.308594 66.019531 76.609375 C 66.019531 76.609375 65.644531 77.734375 65.378906 78.535156 C 65.375 78.546875 65.378906 78.558594 65.382812 78.5625 C 65.855469 78.863281 66.34375 79.148438 66.839844 79.402344 C 66.847656 79.40625 66.859375 79.40625 66.871094 79.394531 C 67.429688 78.765625 68.214844 77.878906 68.214844 77.878906 C 68.367188 77.707031 68.566406 77.59375 68.777344 77.546875 C 70.140625 78.214844 71.621094 78.6875 73.179688 78.917969 C 73.238281 79.019531 73.28125 79.128906 73.308594 79.246094 C 73.308594 79.246094 73.546875 80.40625 73.714844 81.234375 C 73.714844 81.246094 73.726562 81.253906 73.730469 81.253906 C 74.292969 81.28125 74.855469 81.28125 75.410156 81.253906 C 75.421875 81.253906 75.433594 81.246094 75.433594 81.230469 C 75.605469 80.40625 75.84375 79.246094 75.84375 79.246094 C 75.855469 79.1875 75.871094 79.132812 75.894531 79.078125 C 77.710938 79.023438 79.445312 78.648438 81.046875 78.003906 L 82.28125 79.398438 C 82.289062 79.40625 82.300781 79.410156 82.304688 79.40625 C 82.804688 79.148438 83.292969 78.867188 83.757812 78.5625 C 83.769531 78.558594 83.773438 78.546875 83.769531 78.535156 C 83.589844 77.992188 83.363281 77.304688 83.234375 76.917969 C 84.886719 75.917969 86.332031 74.617188 87.488281 73.085938 L 88.78125 73.515625 C 88.792969 73.519531 88.804688 73.515625 88.808594 73.511719 C 89.109375 73.039062 89.390625 72.550781 89.648438 72.050781 C 89.652344 72.042969 89.648438 72.03125 89.640625 72.023438 C 89.347656 71.761719 89 71.449219 88.710938 71.195312 C 89.671875 69.433594 90.289062 67.464844 90.476562 65.371094 L 91.476562 65.164062 C 91.488281 65.164062 91.496094 65.152344 91.496094 65.148438 C 91.523438 64.585938 91.523438 64.023438 91.496094 63.464844 C 91.496094 63.453125 91.488281 63.445312 91.472656 63.441406 C 91.175781 63.378906 90.835938 63.308594 90.519531 63.246094 C 90.414062 61.085938 89.851562 59.046875 88.925781 57.21875 L 89.640625 56.582031 C 89.652344 56.574219 89.652344 56.5625 89.652344 56.558594 C 89.394531 56.058594 89.113281 55.570312 88.808594 55.101562 C 88.804688 55.09375 88.792969 55.089844 88.78125 55.09375 L 87.839844 55.402344 C 86.664062 53.714844 85.152344 52.277344 83.398438 51.191406 L 83.769531 50.070312 C 83.773438 50.058594 83.769531 50.046875 83.765625 50.046875 C 83.292969 49.742188 82.804688 49.457031 82.308594 49.203125 C 82.300781 49.199219 82.289062 49.203125 82.28125 49.210938 C 82.011719 49.511719 81.695312 49.867188 81.4375 50.160156 C 79.6875 49.402344 77.769531 48.964844 75.753906 48.925781 Z M 75.753906 48.925781 " fill-opacity="1" fill-rule="evenodd"/></g><g clip-path="url(#4ef75c3186)"><path fill="#f3ba69" d="M 77.425781 46.121094 C 77.320312 45.613281 76.886719 45.238281 76.363281 45.210938 C 75.742188 45.179688 75.117188 45.179688 74.492188 45.210938 C 73.972656 45.242188 73.539062 45.613281 73.433594 46.121094 C 73.347656 46.539062 73.246094 47.035156 73.160156 47.4375 C 73.066406 47.886719 72.710938 48.238281 72.257812 48.328125 C 71.601562 48.460938 70.957031 48.632812 70.320312 48.84375 C 69.882812 48.996094 69.402344 48.867188 69.09375 48.523438 C 68.820312 48.214844 68.484375 47.839844 68.199219 47.523438 C 67.855469 47.132812 67.289062 47.023438 66.824219 47.261719 C 66.269531 47.546875 65.730469 47.859375 65.203125 48.195312 C 64.769531 48.480469 64.578125 49.023438 64.742188 49.515625 C 65.019531 50.347656 65.410156 51.523438 65.410156 51.523438 C 64.492188 52.253906 63.660156 53.089844 62.925781 54.003906 C 62.925781 54.003906 61.75 53.613281 60.914062 53.335938 C 60.417969 53.171875 59.875 53.359375 59.589844 53.796875 C 59.253906 54.320312 58.941406 54.863281 58.65625 55.417969 C 58.421875 55.878906 58.527344 56.441406 58.917969 56.789062 C 59.574219 57.371094 60.5 58.195312 60.5 58.195312 C 60.074219 59.285156 59.769531 60.421875 59.589844 61.582031 C 59.589844 61.582031 58.378906 61.832031 57.515625 62.007812 C 57.003906 62.113281 56.628906 62.546875 56.601562 63.066406 C 56.570312 63.691406 56.570312 64.3125 56.601562 64.9375 C 56.628906 65.457031 57.003906 65.890625 57.515625 65.996094 C 58.378906 66.171875 59.589844 66.421875 59.589844 66.421875 C 59.769531 67.582031 60.074219 68.71875 60.5 69.8125 C 60.5 69.8125 59.574219 70.632812 58.914062 71.214844 C 58.527344 71.5625 58.417969 72.125 58.65625 72.589844 C 58.941406 73.144531 59.253906 73.683594 59.59375 74.207031 C 59.875 74.640625 60.417969 74.832031 60.914062 74.667969 C 61.75 74.390625 62.925781 74 62.925781 74 C 63.660156 74.917969 64.492188 75.75 65.410156 76.484375 C 65.410156 76.484375 65.019531 77.65625 64.742188 78.488281 C 64.578125 78.984375 64.765625 79.527344 65.203125 79.808594 C 65.730469 80.144531 66.269531 80.457031 66.828125 80.742188 C 67.289062 80.976562 67.855469 80.871094 68.199219 80.480469 C 68.785156 79.824219 69.609375 78.902344 69.609375 78.902344 C 70.703125 79.328125 71.84375 79.632812 73.003906 79.808594 C 73.003906 79.808594 73.253906 81.019531 73.429688 81.882812 C 73.535156 82.390625 73.972656 82.765625 74.492188 82.792969 C 75.117188 82.824219 75.742188 82.824219 76.363281 82.792969 C 76.882812 82.765625 77.320312 82.390625 77.425781 81.882812 C 77.601562 81.019531 77.851562 79.808594 77.851562 79.808594 C 79.015625 79.632812 80.152344 79.328125 81.25 78.902344 C 81.25 78.902344 82.070312 79.824219 82.65625 80.484375 C 83.003906 80.871094 83.566406 80.980469 84.03125 80.746094 C 84.585938 80.457031 85.128906 80.144531 85.652344 79.808594 C 86.089844 79.523438 86.277344 78.984375 86.113281 78.492188 C 85.835938 77.65625 85.445312 76.484375 85.445312 76.484375 C 86.363281 75.75 87.199219 74.917969 87.933594 74 C 87.933594 74 89.109375 74.390625 89.945312 74.667969 C 90.4375 74.832031 90.980469 74.644531 91.265625 74.207031 C 91.601562 73.683594 91.914062 73.144531 92.199219 72.589844 C 92.4375 72.125 92.328125 71.5625 91.941406 71.21875 C 91.28125 70.632812 90.355469 69.8125 90.355469 69.8125 C 90.785156 68.71875 91.089844 67.582031 91.265625 66.421875 C 91.265625 66.421875 92.480469 66.171875 93.34375 65.996094 C 93.851562 65.890625 94.230469 65.457031 94.257812 64.9375 C 94.285156 64.3125 94.285156 63.691406 94.253906 63.066406 C 94.226562 62.550781 93.851562 62.113281 93.34375 62.011719 C 92.480469 61.832031 91.265625 61.582031 91.265625 61.582031 C 91.089844 60.421875 90.785156 59.285156 90.355469 58.195312 C 90.355469 58.195312 91.28125 57.371094 91.941406 56.789062 C 92.332031 56.445312 92.4375 55.878906 92.203125 55.414062 C 91.914062 54.863281 91.601562 54.320312 91.265625 53.796875 C 90.980469 53.363281 90.4375 53.175781 89.945312 53.335938 C 89.542969 53.46875 89.058594 53.628906 88.667969 53.761719 C 88.230469 53.90625 87.746094 53.773438 87.445312 53.425781 C 86.835938 52.734375 86.167969 52.097656 85.445312 51.523438 C 85.445312 51.523438 85.835938 50.347656 86.113281 49.515625 C 86.28125 49.019531 86.089844 48.480469 85.652344 48.195312 C 85.128906 47.859375 84.585938 47.546875 84.03125 47.261719 C 83.566406 47.027344 83.003906 47.132812 82.65625 47.523438 C 82.070312 48.179688 81.25 49.101562 81.25 49.101562 C 80.152344 48.675781 79.015625 48.371094 77.851562 48.195312 C 77.851562 48.195312 77.601562 46.984375 77.425781 46.121094 Z M 75.820312 52.796875 L 76.082031 52.269531 C 76.453125 51.519531 77.28125 51.117188 78.109375 51.285156 C 78.527344 51.375 78.945312 51.480469 79.363281 51.613281 C 80.160156 51.871094 80.6875 52.628906 80.640625 53.464844 L 80.609375 54.050781 C 80.871094 54.1875 81.128906 54.335938 81.378906 54.492188 L 81.871094 54.167969 C 82.566406 53.703125 83.492188 53.765625 84.121094 54.324219 C 84.441406 54.613281 84.746094 54.914062 85.042969 55.238281 C 85.605469 55.855469 85.679688 56.777344 85.222656 57.476562 L 84.898438 57.96875 C 85.058594 58.21875 85.210938 58.476562 85.347656 58.738281 L 85.9375 58.699219 C 86.769531 58.644531 87.539062 59.160156 87.804688 59.960938 C 87.9375 60.367188 88.050781 60.78125 88.144531 61.210938 C 88.324219 62.027344 87.925781 62.859375 87.179688 63.238281 L 86.652344 63.503906 C 86.667969 63.800781 86.667969 64.097656 86.65625 64.394531 L 87.183594 64.652344 C 87.933594 65.023438 88.339844 65.851562 88.171875 66.675781 C 88.082031 67.097656 87.972656 67.511719 87.839844 67.929688 C 87.585938 68.726562 86.824219 69.25 85.988281 69.203125 L 85.398438 69.171875 C 85.261719 69.433594 85.113281 69.691406 84.957031 69.945312 L 85.28125 70.433594 C 85.746094 71.128906 85.683594 72.046875 85.125 72.675781 C 84.835938 72.996094 84.535156 73.300781 84.210938 73.597656 C 83.589844 74.160156 82.667969 74.234375 81.964844 73.777344 L 81.472656 73.457031 C 81.222656 73.613281 80.964844 73.765625 80.703125 73.902344 L 80.742188 74.488281 C 80.796875 75.324219 80.277344 76.089844 79.480469 76.355469 C 79.070312 76.488281 78.65625 76.601562 78.226562 76.695312 C 77.40625 76.871094 76.574219 76.476562 76.195312 75.730469 L 75.929688 75.207031 C 75.632812 75.21875 75.335938 75.21875 75.039062 75.210938 L 74.777344 75.734375 C 74.40625 76.484375 73.574219 76.890625 72.75 76.71875 C 72.328125 76.632812 71.910156 76.523438 71.492188 76.390625 C 70.695312 76.136719 70.171875 75.375 70.214844 74.539062 L 70.25 73.953125 C 69.984375 73.816406 69.726562 73.671875 69.476562 73.511719 L 68.984375 73.839844 C 68.289062 74.300781 67.367188 74.238281 66.738281 73.679688 C 66.417969 73.390625 66.109375 73.089844 65.8125 72.765625 C 65.25 72.148438 65.179688 71.226562 65.636719 70.527344 L 65.957031 70.035156 C 65.796875 69.785156 65.648438 69.53125 65.507812 69.269531 L 64.921875 69.304688 C 64.085938 69.359375 63.320312 68.84375 63.054688 68.046875 C 62.917969 67.636719 62.804688 67.222656 62.710938 66.792969 C 62.535156 65.976562 62.933594 65.144531 63.679688 64.765625 L 64.203125 64.5 C 64.191406 64.203125 64.1875 63.910156 64.199219 63.613281 L 63.671875 63.351562 C 62.921875 62.980469 62.515625 62.152344 62.6875 61.328125 C 62.773438 60.90625 62.882812 60.492188 63.015625 60.074219 C 63.273438 59.277344 64.035156 58.753906 64.871094 58.800781 L 65.457031 58.832031 C 65.59375 58.570312 65.742188 58.3125 65.898438 58.0625 L 65.574219 57.570312 C 65.109375 56.875 65.175781 55.957031 65.734375 55.328125 C 66.019531 55.007812 66.324219 54.703125 66.648438 54.40625 C 67.269531 53.84375 68.191406 53.773438 68.890625 54.230469 L 69.382812 54.550781 C 69.632812 54.390625 69.890625 54.242188 70.152344 54.101562 L 70.117188 53.515625 C 70.0625 52.679688 70.578125 51.917969 71.378906 51.652344 C 71.785156 51.519531 72.203125 51.40625 72.628906 51.308594 C 73.449219 51.132812 74.285156 51.53125 74.664062 52.277344 L 74.929688 52.800781 C 75.226562 52.785156 75.523438 52.785156 75.820312 52.796875 Z M 75.820312 52.796875 " fill-opacity="1" fill-rule="evenodd"/></g><path fill="#ffffff" d="M 73.664062 52.78125 C 73.515625 52.488281 73.1875 52.332031 72.867188 52.402344 C 72.480469 52.488281 72.101562 52.589844 71.726562 52.714844 C 71.414062 52.816406 71.210938 53.117188 71.234375 53.445312 C 71.25 53.710938 71.269531 54.03125 71.285156 54.289062 C 71.304688 54.578125 71.148438 54.851562 70.886719 54.980469 C 70.507812 55.171875 70.140625 55.382812 69.792969 55.617188 C 69.550781 55.78125 69.234375 55.785156 68.992188 55.625 C 68.773438 55.484375 68.503906 55.308594 68.277344 55.164062 C 68.003906 54.984375 67.640625 55.011719 67.398438 55.234375 C 67.109375 55.5 66.828125 55.78125 66.566406 56.074219 C 66.347656 56.316406 66.324219 56.679688 66.503906 56.953125 C 66.8125 57.414062 67.246094 58.0625 67.246094 58.0625 C 66.808594 58.664062 66.441406 59.308594 66.144531 59.988281 C 66.144531 59.988281 65.367188 59.945312 64.808594 59.917969 C 64.480469 59.898438 64.183594 60.105469 64.082031 60.417969 C 63.964844 60.792969 63.863281 61.171875 63.78125 61.558594 C 63.714844 61.878906 63.875 62.203125 64.167969 62.351562 C 64.667969 62.597656 65.367188 62.941406 65.367188 62.941406 C 65.289062 63.679688 65.292969 64.421875 65.378906 65.160156 C 65.378906 65.160156 64.679688 65.511719 64.183594 65.761719 C 63.890625 65.910156 63.734375 66.238281 63.804688 66.558594 C 63.890625 66.945312 63.996094 67.324219 64.117188 67.699219 C 64.222656 68.007812 64.523438 68.210938 64.851562 68.191406 C 65.40625 68.15625 66.183594 68.105469 66.183594 68.105469 C 66.488281 68.78125 66.863281 69.425781 67.304688 70.019531 C 67.304688 70.019531 66.878906 70.671875 66.574219 71.136719 C 66.394531 71.414062 66.421875 71.773438 66.644531 72.019531 C 66.910156 72.308594 67.191406 72.585938 67.484375 72.847656 C 67.730469 73.066406 68.089844 73.089844 68.363281 72.910156 C 68.828125 72.601562 69.480469 72.167969 69.480469 72.167969 C 70.078125 72.605469 70.726562 72.972656 71.40625 73.265625 C 71.40625 73.265625 71.363281 74.046875 71.335938 74.601562 C 71.316406 74.929688 71.523438 75.226562 71.835938 75.328125 C 72.210938 75.445312 72.59375 75.546875 72.980469 75.625 C 73.300781 75.691406 73.628906 75.535156 73.773438 75.242188 C 74.019531 74.742188 74.367188 74.042969 74.367188 74.042969 C 75.105469 74.121094 75.851562 74.117188 76.585938 74.03125 C 76.585938 74.03125 76.941406 74.730469 77.191406 75.222656 C 77.339844 75.515625 77.667969 75.671875 77.992188 75.605469 C 78.375 75.519531 78.757812 75.414062 79.132812 75.292969 C 79.441406 75.1875 79.644531 74.886719 79.625 74.5625 C 79.589844 74.007812 79.539062 73.226562 79.539062 73.226562 C 80.21875 72.925781 80.859375 72.550781 81.457031 72.109375 C 81.457031 72.109375 82.113281 72.539062 82.578125 72.839844 C 82.851562 73.019531 83.214844 72.992188 83.460938 72.769531 C 83.75 72.503906 84.027344 72.226562 84.289062 71.929688 C 84.507812 71.6875 84.535156 71.324219 84.351562 71.050781 C 84.042969 70.589844 83.609375 69.941406 83.609375 69.941406 C 84.046875 69.339844 84.417969 68.695312 84.710938 68.015625 C 84.710938 68.015625 85.492188 68.058594 86.046875 68.089844 C 86.375 68.105469 86.675781 67.902344 86.777344 67.589844 C 86.894531 67.214844 86.996094 66.832031 87.074219 66.445312 C 87.140625 66.125 86.980469 65.800781 86.6875 65.65625 C 86.191406 65.40625 85.488281 65.0625 85.488281 65.0625 C 85.566406 64.324219 85.5625 63.582031 85.476562 62.847656 C 85.476562 62.847656 86.175781 62.492188 86.671875 62.242188 C 86.964844 62.09375 87.121094 61.765625 87.050781 61.445312 C 86.964844 61.0625 86.863281 60.679688 86.738281 60.308594 C 86.636719 59.996094 86.335938 59.792969 86.007812 59.816406 C 85.453125 59.847656 84.671875 59.898438 84.671875 59.898438 C 84.371094 59.222656 83.996094 58.582031 83.550781 57.984375 C 83.550781 57.984375 83.980469 57.332031 84.285156 56.867188 C 84.464844 56.59375 84.433594 56.230469 84.214844 55.988281 C 83.945312 55.699219 83.667969 55.421875 83.375 55.15625 C 83.128906 54.941406 82.765625 54.914062 82.492188 55.097656 C 82.269531 55.246094 82 55.421875 81.785156 55.566406 C 81.542969 55.726562 81.226562 55.726562 80.984375 55.566406 C 80.5 55.246094 79.984375 54.96875 79.449219 54.738281 C 79.449219 54.738281 79.492188 53.957031 79.523438 53.402344 C 79.539062 53.074219 79.335938 52.777344 79.023438 52.675781 C 78.644531 52.558594 78.265625 52.457031 77.878906 52.378906 C 77.554688 52.3125 77.230469 52.46875 77.085938 52.765625 C 76.835938 53.261719 76.488281 53.960938 76.488281 53.960938 C 75.75 53.882812 75.007812 53.886719 74.269531 53.972656 C 74.269531 53.972656 73.917969 53.277344 73.664062 52.78125 Z M 71.867188 68.851562 C 72.285156 68.851562 72.625 69.191406 72.625 69.609375 C 72.625 70.027344 72.285156 70.367188 71.867188 70.367188 C 71.449219 70.367188 71.109375 70.027344 71.109375 69.609375 C 71.109375 69.191406 71.449219 68.851562 71.867188 68.851562 Z M 74.800781 61.710938 C 76.070312 61.367188 77.378906 62.113281 77.726562 63.375 C 78.070312 64.640625 77.324219 65.949219 76.054688 66.292969 C 74.789062 66.640625 73.476562 65.894531 73.132812 64.628906 C 72.785156 63.363281 73.535156 62.054688 74.800781 61.710938 Z M 78.769531 56.890625 C 79.472656 56.890625 80.039062 57.457031 80.039062 58.15625 C 80.039062 58.855469 79.472656 59.421875 78.769531 59.421875 C 78.070312 59.421875 77.5 58.855469 77.5 58.15625 C 77.5 57.457031 78.070312 56.890625 78.769531 56.890625 Z M 78.769531 56.890625 " fill-opacity="1" fill-rule="evenodd"/><g fill="#1a1716" fill-opacity="1"><g transform="translate(43.434198, 105.994752)"><g><path d="M 10.40625 -7.046875 L 13.78125 -7.046875 L 13.78125 -1.453125 C 13.007812 -0.898438 12.125 -0.472656 11.125 -0.171875 C 10.125 0.117188 9.117188 0.265625 8.109375 0.265625 C 6.691406 0.265625 5.414062 -0.03125 4.28125 -0.625 C 3.15625 -1.226562 2.269531 -2.0625 1.625 -3.125 C 0.976562 -4.195312 0.65625 -5.410156 0.65625 -6.765625 C 0.65625 -8.109375 0.976562 -9.316406 1.625 -10.390625 C 2.269531 -11.460938 3.164062 -12.296875 4.3125 -12.890625 C 5.457031 -13.484375 6.75 -13.78125 8.1875 -13.78125 C 9.445312 -13.78125 10.578125 -13.566406 11.578125 -13.140625 C 12.585938 -12.722656 13.425781 -12.113281 14.09375 -11.3125 L 11.671875 -9.109375 C 10.753906 -10.117188 9.65625 -10.625 8.375 -10.625 C 7.21875 -10.625 6.285156 -10.269531 5.578125 -9.5625 C 4.867188 -8.863281 4.515625 -7.929688 4.515625 -6.765625 C 4.515625 -6.015625 4.675781 -5.34375 5 -4.75 C 5.320312 -4.164062 5.769531 -3.707031 6.34375 -3.375 C 6.925781 -3.050781 7.59375 -2.890625 8.34375 -2.890625 C 9.070312 -2.890625 9.757812 -3.039062 10.40625 -3.34375 Z M 10.40625 -7.046875 "/></g></g></g><g fill="#1a1716" fill-opacity="1"><g transform="translate(60.23808, 105.994752)"><g><path d="M 12.203125 -2.953125 L 12.203125 0 L 1.359375 0 L 1.359375 -13.515625 L 11.953125 -13.515625 L 11.953125 -10.5625 L 5.140625 -10.5625 L 5.140625 -8.28125 L 11.140625 -8.28125 L 11.140625 -5.421875 L 5.140625 -5.421875 L 5.140625 -2.953125 Z M 12.203125 -2.953125 "/></g></g></g><g fill="#1a1716" fill-opacity="1"><g transform="translate(75.149185, 105.994752)"><g><path d="M 10.40625 -2.625 L 4.6875 -2.625 L 3.625 0 L -0.265625 0 L 5.703125 -13.515625 L 9.46875 -13.515625 L 15.453125 0 L 11.46875 0 Z M 9.296875 -5.453125 L 7.546875 -9.765625 L 5.8125 -5.453125 Z M 9.296875 -5.453125 "/></g></g></g><g fill="#1a1716" fill-opacity="1"><g transform="translate(92.262093, 105.994752)"><g><path d="M 7.265625 -3.59375 L 5.171875 -3.59375 L 5.171875 0 L 1.359375 0 L 1.359375 -13.515625 L 7.53125 -13.515625 C 8.75 -13.515625 9.804688 -13.3125 10.703125 -12.90625 C 11.609375 -12.5 12.304688 -11.921875 12.796875 -11.171875 C 13.285156 -10.421875 13.53125 -9.535156 13.53125 -8.515625 C 13.53125 -7.535156 13.300781 -6.679688 12.84375 -5.953125 C 12.394531 -5.222656 11.742188 -4.65625 10.890625 -4.25 L 13.8125 0 L 9.71875 0 Z M 9.671875 -8.515625 C 9.671875 -9.148438 9.472656 -9.640625 9.078125 -9.984375 C 8.679688 -10.328125 8.085938 -10.5 7.296875 -10.5 L 5.171875 -10.5 L 5.171875 -6.546875 L 7.296875 -6.546875 C 8.085938 -6.546875 8.679688 -6.71875 9.078125 -7.0625 C 9.472656 -7.40625 9.671875 -7.890625 9.671875 -8.515625 Z M 9.671875 -8.515625 "/></g></g></g><g fill="#1a1716" fill-opacity="1"><g transform="translate(27.267745, 125.18037)"><g><path d="M 1.359375 -13.515625 L 5.171875 -13.515625 L 5.171875 0 L 1.359375 0 Z M 1.359375 -13.515625 "/></g></g></g><g fill="#1a1716" fill-opacity="1"><g transform="translate(35.747274, 125.18037)"><g><path d="M 14.21875 -13.515625 L 14.21875 0 L 11.0625 0 L 5.09375 -7.203125 L 5.09375 0 L 1.359375 0 L 1.359375 -13.515625 L 4.5 -13.515625 L 10.46875 -6.3125 L 10.46875 -13.515625 Z M 14.21875 -13.515625 "/></g></g></g><g fill="#1a1716" fill-opacity="1"><g transform="translate(53.246464, 125.18037)"><g><path d="M 6.109375 0.265625 C 5.015625 0.265625 3.953125 0.128906 2.921875 -0.140625 C 1.890625 -0.410156 1.050781 -0.769531 0.40625 -1.21875 L 1.65625 -4.03125 C 2.257812 -3.632812 2.960938 -3.3125 3.765625 -3.0625 C 4.566406 -2.820312 5.351562 -2.703125 6.125 -2.703125 C 7.59375 -2.703125 8.328125 -3.066406 8.328125 -3.796875 C 8.328125 -4.191406 8.113281 -4.476562 7.6875 -4.65625 C 7.269531 -4.84375 6.597656 -5.039062 5.671875 -5.25 C 4.660156 -5.46875 3.8125 -5.703125 3.125 -5.953125 C 2.445312 -6.203125 1.863281 -6.601562 1.375 -7.15625 C 0.882812 -7.71875 0.640625 -8.46875 0.640625 -9.40625 C 0.640625 -10.226562 0.863281 -10.96875 1.3125 -11.625 C 1.757812 -12.289062 2.429688 -12.816406 3.328125 -13.203125 C 4.222656 -13.585938 5.320312 -13.78125 6.625 -13.78125 C 7.507812 -13.78125 8.382812 -13.679688 9.25 -13.484375 C 10.113281 -13.285156 10.875 -12.992188 11.53125 -12.609375 L 10.34375 -9.765625 C 9.0625 -10.460938 7.816406 -10.8125 6.609375 -10.8125 C 5.847656 -10.8125 5.289062 -10.695312 4.9375 -10.46875 C 4.59375 -10.25 4.421875 -9.957031 4.421875 -9.59375 C 4.421875 -9.238281 4.625 -8.96875 5.03125 -8.78125 C 5.445312 -8.601562 6.113281 -8.421875 7.03125 -8.234375 C 8.0625 -8.015625 8.914062 -7.773438 9.59375 -7.515625 C 10.269531 -7.265625 10.851562 -6.863281 11.34375 -6.3125 C 11.84375 -5.769531 12.09375 -5.03125 12.09375 -4.09375 C 12.09375 -3.28125 11.863281 -2.546875 11.40625 -1.890625 C 10.957031 -1.234375 10.28125 -0.707031 9.375 -0.3125 C 8.476562 0.0703125 7.390625 0.265625 6.109375 0.265625 Z M 6.109375 0.265625 "/></g></g></g><g fill="#1a1716" fill-opacity="1"><g transform="translate(67.674721, 125.18037)"><g><path d="M 1.359375 -13.515625 L 5.171875 -13.515625 L 5.171875 0 L 1.359375 0 Z M 1.359375 -13.515625 "/></g></g></g><g fill="#1a1716" fill-opacity="1"><g transform="translate(76.15425, 125.18037)"><g><path d="M 10.40625 -7.046875 L 13.78125 -7.046875 L 13.78125 -1.453125 C 13.007812 -0.898438 12.125 -0.472656 11.125 -0.171875 C 10.125 0.117188 9.117188 0.265625 8.109375 0.265625 C 6.691406 0.265625 5.414062 -0.03125 4.28125 -0.625 C 3.15625 -1.226562 2.269531 -2.0625 1.625 -3.125 C 0.976562 -4.195312 0.65625 -5.410156 0.65625 -6.765625 C 0.65625 -8.109375 0.976562 -9.316406 1.625 -10.390625 C 2.269531 -11.460938 3.164062 -12.296875 4.3125 -12.890625 C 5.457031 -13.484375 6.75 -13.78125 8.1875 -13.78125 C 9.445312 -13.78125 10.578125 -13.566406 11.578125 -13.140625 C 12.585938 -12.722656 13.425781 -12.113281 14.09375 -11.3125 L 11.671875 -9.109375 C 10.753906 -10.117188 9.65625 -10.625 8.375 -10.625 C 7.21875 -10.625 6.285156 -10.269531 5.578125 -9.5625 C 4.867188 -8.863281 4.515625 -7.929688 4.515625 -6.765625 C 4.515625 -6.015625 4.675781 -5.34375 5 -4.75 C 5.320312 -4.164062 5.769531 -3.707031 6.34375 -3.375 C 6.925781 -3.050781 7.59375 -2.890625 8.34375 -2.890625 C 9.070312 -2.890625 9.757812 -3.039062 10.40625 -3.34375 Z M 10.40625 -7.046875 "/></g></g></g><g fill="#1a1716" fill-opacity="1"><g transform="translate(92.958136, 125.18037)"><g><path d="M 14.21875 -13.515625 L 14.21875 0 L 10.390625 0 L 10.390625 -5.265625 L 5.171875 -5.265625 L 5.171875 0 L 1.359375 0 L 1.359375 -13.515625 L 5.171875 -13.515625 L 5.171875 -8.4375 L 10.390625 -8.4375 L 10.390625 -13.515625 Z M 14.21875 -13.515625 "/></g></g></g><g fill="#1a1716" fill-opacity="1"><g transform="translate(110.457323, 125.18037)"><g><path d="M 4.234375 -10.484375 L 0.078125 -10.484375 L 0.078125 -13.515625 L 12.1875 -13.515625 L 12.1875 -10.484375 L 8.046875 -10.484375 L 8.046875 0 L 4.234375 0 Z M 4.234375 -10.484375 "/></g></g></g></svg>